<svg t="1735801034267" class="icon" viewBox="0 0 1024 1024" version="1.1" xmlns="http://www.w3.org/2000/svg" p-id="3162" width="256" height="256"><path d="M767.83104 56.832A150.072889 150.072889 0 0 0 709.747484 45.511111a150.016 150.016 0 0 0-150.755555 151.950222c0 27.079111 9.329778 53.589333 19.342222 75.093334L428.147484 384.284444c-25.486222-28.216889-55.751111-48.355556-90.737777-55.864888v-43.576889c50.744889-15.530667 83.740444-62.976 83.740444-115.484445C421.20704 101.262222 365.967929 45.511111 298.213262 45.511111 230.401707 45.511111 175.219484 101.262222 175.219484 169.358222c0 52.508444 32.881778 99.953778 83.626667 115.484445v44.032C175.219484 349.525333 113.779484 419.271111 113.779484 506.481778a175.104 175.104 0 0 0 139.548445 172.544v43.52C202.526151 738.076444 169.530596 785.521778 169.530596 838.087111c0 68.039111 55.239111 123.733333 122.993777 123.733333 67.811556 0 123.107556-55.694222 123.107556-123.733333 0-52.565333-32.995556-100.010667-83.797333-115.541333v-43.576889a161.109333 161.109333 0 0 0 91.477333-55.239111l167.708444 127.658666c-10.012444 21.560889-19.399111 48.071111-19.399111 75.207112 0 84.878222 66.389333 151.893333 150.869334 151.893333a149.959111 149.959111 0 0 0 150.926222-151.893333 150.016 150.016 0 0 0-151.04-151.893334l-11.320889 0.625778c-23.722667 2.275556-46.535111 10.979556-65.365333 20.024889L467.742151 558.592c4.778667-14.791111 9.216-31.232 9.216-52.053333a162.133333 162.133333 0 0 0-9.159111-52.110223l168.903111-129.820444c19.114667 15.303111 46.250667 24.689778 73.045333 24.689778a150.016 150.016 0 0 0 150.983112-151.893334A150.072889 150.072889 0 0 0 767.83104 56.832zM248.207929 169.358222c0-14.279111 4.721778-25.315556 12.060444-32.768 7.395556-7.395556 18.261333-12.117333 32.369778-12.117333 14.108444 0 25.031111 4.664889 32.426667 12.117333 7.338667 7.395556 12.003556 18.432 12.003555 32.768 0 14.222222-4.664889 25.258667-12.060444 32.711111-7.338667 7.395556-18.204444 12.060444-32.426667 12.060445-14.051556 0-24.974222-4.664889-32.312889-12.060445-7.395556-7.395556-12.060444-18.432-12.060444-32.711111z m389.290667 28.046222c0-38.684444 34.019556-72.931556 72.362666-72.931555 38.286222 0 72.305778 34.247111 72.305778 72.931555 0 38.798222-34.019556 72.931556-72.248889 72.931556-38.4 0-72.419556-34.133333-72.419555-72.931556z m12.8 629.248c0-38.741333 34.019556-72.931556 72.248888-72.931555 38.4 0 72.362667 34.133333 72.362667 72.931555s-34.076444 72.988444-72.305778 72.988445c-38.343111 0-72.305778-34.133333-72.305777-72.988445z m-402.090667 17.066667c0-14.222222 4.721778-25.258667 12.060444-32.711111 7.395556-7.395556 18.204444-12.060444 32.369778-12.060444 14.108444 0 25.031111 4.664889 32.426667 12.060444 7.338667 7.395556 12.003556 18.432 12.003555 32.711111 0 14.279111-4.664889 25.315556-12.060444 32.768-7.395556 7.395556-18.261333 12.117333-32.426667 12.117333-14.051556 0-24.974222-4.664889-32.312889-12.117333-7.395556-7.395556-12.060444-18.432-12.060444-32.768z m156.046222-338.090667c0-58.88-51.2-110.421333-109.795555-110.421333h0.056888c-58.481778 0-109.681778 51.541333-109.681777 110.421333 0 58.88 51.2 110.478222 109.681777 110.478223s109.738667-51.541333 109.738667-110.478223z" fill="#000000" p-id="3163"></path></svg>